<svg width="44" height="44" viewBox="0 0 44 44" fill="none" xmlns="http://www.w3.org/2000/svg">
<path d="M38.1562 6.875H4.46875C4.27969 6.875 4.125 7.02969 4.125 7.21875V9.96875C4.125 10.1578 4.27969 10.3125 4.46875 10.3125H38.1562C38.3453 10.3125 38.5 10.1578 38.5 9.96875V7.21875C38.5 7.02969 38.3453 6.875 38.1562 6.875ZM38.1562 33.6875H4.46875C4.27969 33.6875 4.125 33.8422 4.125 34.0312V36.7812C4.125 36.9703 4.27969 37.125 4.46875 37.125H38.1562C38.3453 37.125 38.5 36.9703 38.5 36.7812V34.0312C38.5 33.8422 38.3453 33.6875 38.1562 33.6875ZM38.1562 20.2812H4.46875C4.27969 20.2812 4.125 20.4359 4.125 20.625V23.375C4.125 23.5641 4.27969 23.7187 4.46875 23.7187H38.1562C38.3453 23.7187 38.5 23.5641 38.5 23.375V20.625C38.5 20.4359 38.3453 20.2812 38.1562 20.2812Z" fill="#FF5677"/>
</svg>
