<svg width="30" height="31" viewBox="0 0 30 31" fill="none" xmlns="http://www.w3.org/2000/svg">
<path d="M23.5938 6.125C25.4062 6.125 26.875 7.59375 26.875 9.40625V21.5938C26.875 23.4062 25.4062 24.875 23.5938 24.875H6.40625C5.53601 24.875 4.70141 24.5293 4.08606 23.9139C3.4707 23.2986 3.125 22.464 3.125 21.5938V9.40625C3.125 7.59375 4.59375 6.125 6.40625 6.125H23.5938ZM25.3125 11.9694L15.3762 17.4344C15.274 17.4906 15.1605 17.5232 15.044 17.5298C14.9275 17.5364 14.8111 17.5168 14.7031 17.4725L14.6238 17.435L4.6875 11.9688V21.5938C4.6875 22.0496 4.86858 22.4868 5.19091 22.8091C5.51324 23.1314 5.95041 23.3125 6.40625 23.3125H23.5938C24.0496 23.3125 24.4868 23.1314 24.8091 22.8091C25.1314 22.4868 25.3125 22.0496 25.3125 21.5938V11.9694ZM23.5938 7.6875H6.40625C5.95041 7.6875 5.51324 7.86858 5.19091 8.19091C4.86858 8.51324 4.6875 8.95041 4.6875 9.40625V10.1869L15 15.8581L25.3125 10.1863V9.40625C25.3125 8.95041 25.1314 8.51324 24.8091 8.19091C24.4868 7.86858 24.0496 7.6875 23.5938 7.6875Z" fill="black"/>
</svg>
