<svg width="30" height="31" viewBox="0 0 30 31" fill="none" xmlns="http://www.w3.org/2000/svg">
<path d="M15 8C14.0729 8 13.1666 8.27492 12.3958 8.78999C11.6249 9.30506 11.0241 10.0371 10.6693 10.8937C10.3145 11.7502 10.2217 12.6927 10.4026 13.602C10.5834 14.5113 11.0299 15.3465 11.6854 16.0021C12.341 16.6576 13.1762 17.1041 14.0855 17.2849C14.9948 17.4658 15.9373 17.373 16.7938 17.0182C17.6504 16.6634 18.3824 16.0626 18.8975 15.2917C19.4126 14.5209 19.6875 13.6146 19.6875 12.6875C19.6875 11.4443 19.1936 10.252 18.3146 9.37294C17.4355 8.49386 16.2432 8 15 8ZM15 15.5C14.4437 15.5 13.9 15.335 13.4375 15.026C12.9749 14.717 12.6145 14.2777 12.4016 13.7638C12.1887 13.2499 12.133 12.6844 12.2415 12.1388C12.3501 11.5932 12.6179 11.0921 13.0113 10.6988C13.4046 10.3054 13.9057 10.0376 14.4513 9.92904C14.9969 9.82052 15.5624 9.87622 16.0763 10.0891C16.5902 10.302 17.0295 10.6624 17.3385 11.125C17.6476 11.5875 17.8125 12.1312 17.8125 12.6875C17.8125 13.4334 17.5162 14.1488 16.9887 14.6762C16.4613 15.2037 15.7459 15.5 15 15.5ZM15 2.375C12.2659 2.3781 9.64468 3.46559 7.71139 5.39889C5.77809 7.33218 4.6906 9.95341 4.6875 12.6875C4.6875 16.3672 6.38789 20.2672 9.60938 23.9668C11.0569 25.6386 12.6861 27.1439 14.4668 28.4551C14.6244 28.5655 14.8122 28.6247 15.0047 28.6247C15.1971 28.6247 15.3849 28.5655 15.5426 28.4551C17.32 27.1434 18.946 25.638 20.3906 23.9668C23.6074 20.2672 25.3125 16.3672 25.3125 12.6875C25.3094 9.95341 24.2219 7.33218 22.2886 5.39889C20.3553 3.46559 17.7341 2.3781 15 2.375ZM15 26.5156C13.0629 24.9922 6.5625 19.3965 6.5625 12.6875C6.5625 10.4497 7.45145 8.30362 9.03379 6.72129C10.6161 5.13895 12.7622 4.25 15 4.25C17.2378 4.25 19.3839 5.13895 20.9662 6.72129C22.5486 8.30362 23.4375 10.4497 23.4375 12.6875C23.4375 19.3941 16.9371 24.9922 15 26.5156Z" fill="black"/>
</svg>
