<svg width="30" height="30" viewBox="0 0 30 30" fill="none" xmlns="http://www.w3.org/2000/svg">
<path d="M25.9676 18.7852L20.4317 16.3043C20.1808 16.1968 19.9072 16.1536 19.6354 16.1786C19.3637 16.2035 19.1025 16.2959 18.8754 16.4473C18.8524 16.4621 18.8304 16.4785 18.8098 16.4965L15.9164 18.9574C15.8864 18.9738 15.853 18.983 15.8188 18.9842C15.7846 18.9854 15.7507 18.9786 15.7195 18.9645C13.8598 18.0668 11.9332 16.152 11.032 14.318C11.017 14.2873 11.0092 14.2537 11.0092 14.2195C11.0092 14.1854 11.017 14.1517 11.032 14.1211L13.5012 11.1914C13.5189 11.1697 13.5353 11.147 13.5504 11.1234C13.6997 10.8955 13.7899 10.634 13.8128 10.3625C13.8357 10.091 13.7906 9.81809 13.6817 9.56837L11.2184 4.0418C11.0785 3.71556 10.8366 3.44349 10.5289 3.26643C10.2213 3.08936 9.86448 3.01685 9.51212 3.05977C7.98075 3.2611 6.57507 4.01314 5.55777 5.17536C4.54048 6.33758 3.98118 7.83046 3.98439 9.37501C3.98439 18.5508 11.4492 26.0156 20.625 26.0156C22.1695 26.0186 23.6622 25.4592 24.8244 24.442C25.9866 23.4247 26.7387 22.0192 26.9402 20.4879C26.9831 20.1372 26.9116 19.782 26.7363 19.4752C26.5611 19.1684 26.2915 18.9264 25.9676 18.7852ZM20.625 24.6094C12.225 24.6094 5.39064 17.775 5.39064 9.37501C5.38672 8.17258 5.82072 7.00986 6.61155 6.10408C7.40238 5.1983 8.49594 4.61144 9.6879 4.45313H9.71486C9.76208 4.45401 9.80794 4.46914 9.84642 4.49654C9.88489 4.52393 9.9142 4.56231 9.93048 4.60665L12.4031 10.1273C12.4172 10.158 12.4245 10.1914 12.4245 10.2252C12.4245 10.259 12.4172 10.2924 12.4031 10.3231L9.92931 13.2598C9.91086 13.2807 9.89401 13.3031 9.87892 13.3266C9.72412 13.5629 9.63297 13.8352 9.61428 14.1171C9.5956 14.3989 9.65002 14.6809 9.77228 14.9356C10.8117 17.0637 12.9563 19.1918 15.1078 20.2313C15.364 20.3528 15.6473 20.4059 15.9301 20.3854C16.2129 20.3649 16.4856 20.2714 16.7215 20.1141C16.7438 20.0988 16.766 20.0824 16.7871 20.0648L19.6793 17.6039C19.7079 17.5886 19.7394 17.5796 19.7718 17.5775C19.8041 17.5755 19.8366 17.5805 19.8668 17.5922L25.4039 20.0731C25.4491 20.0923 25.4872 20.1253 25.5126 20.1674C25.5381 20.2094 25.5496 20.2584 25.5457 20.3074C25.3882 21.4999 24.8019 22.5943 23.8963 23.386C22.9908 24.1777 21.8279 24.6126 20.625 24.6094Z" fill="white"/>
</svg>
