<svg width="15" height="19" viewBox="0 0 15 19" fill="none" xmlns="http://www.w3.org/2000/svg">
<path d="M7.5 4.25C6.85103 4.25 6.21663 4.44244 5.67704 4.80299C5.13744 5.16354 4.71687 5.676 4.46852 6.27557C4.22017 6.87514 4.15519 7.53489 4.2818 8.17139C4.40841 8.80789 4.72091 9.39255 5.17981 9.85144C5.6387 10.3103 6.22336 10.6228 6.85986 10.7495C7.49636 10.8761 8.15611 10.8111 8.75568 10.5627C9.35525 10.3144 9.86771 9.89381 10.2283 9.35421C10.5888 8.81462 10.7812 8.18022 10.7812 7.53125C10.7812 6.66101 10.4355 5.82641 9.82019 5.21106C9.20484 4.5957 8.37024 4.25 7.5 4.25ZM7.5 9.5C7.11062 9.5 6.72998 9.38453 6.40622 9.16821C6.08246 8.95188 5.83012 8.6444 5.68111 8.28466C5.5321 7.92492 5.49311 7.52907 5.56908 7.14717C5.64504 6.76527 5.83255 6.41447 6.10788 6.13913C6.38322 5.8638 6.73402 5.67629 7.11592 5.60033C7.49782 5.52436 7.89367 5.56335 8.25341 5.71236C8.61315 5.86137 8.92063 6.11371 9.13696 6.43747C9.35328 6.76123 9.46875 7.14187 9.46875 7.53125C9.46875 8.05339 9.26133 8.55415 8.89212 8.92337C8.5229 9.29258 8.02214 9.5 7.5 9.5ZM7.5 0.3125C5.58613 0.314671 3.75128 1.07591 2.39797 2.42922C1.04466 3.78253 0.283421 5.61738 0.28125 7.53125C0.28125 10.107 1.47152 12.837 3.72656 15.4268C4.73983 16.597 5.88025 17.6507 7.12676 18.5686C7.2371 18.6459 7.36856 18.6873 7.50328 18.6873C7.638 18.6873 7.76946 18.6459 7.87981 18.5686C9.12401 17.6504 10.2622 16.5966 11.2734 15.4268C13.5252 12.837 14.7188 10.107 14.7188 7.53125C14.7166 5.61738 13.9553 3.78253 12.602 2.42922C11.2487 1.07591 9.41387 0.314671 7.5 0.3125ZM7.5 17.2109C6.14402 16.1445 1.59375 12.2275 1.59375 7.53125C1.59375 5.96481 2.21601 4.46254 3.32365 3.3549C4.43129 2.24726 5.93357 1.625 7.5 1.625C9.06643 1.625 10.5687 2.24726 11.6763 3.3549C12.784 4.46254 13.4062 5.96481 13.4062 7.53125C13.4062 12.2259 8.85598 16.1445 7.5 17.2109Z" fill="white"/>
</svg>
