<svg width="17" height="15" viewBox="0 0 17 15" fill="none" xmlns="http://www.w3.org/2000/svg">
<path d="M14.5156 0.9375C15.7844 0.9375 16.8125 1.96562 16.8125 3.23438V11.7656C16.8125 13.0344 15.7844 14.0625 14.5156 14.0625H2.48438C1.87521 14.0625 1.29099 13.8205 0.860239 13.3898C0.429491 12.959 0.1875 12.3748 0.1875 11.7656V3.23438C0.1875 1.96562 1.21562 0.9375 2.48438 0.9375H14.5156ZM15.7188 5.02856L8.76337 8.85406C8.69181 8.89341 8.61234 8.91623 8.53081 8.92085C8.44927 8.92547 8.36774 8.91177 8.29219 8.88075L8.23663 8.8545L1.28125 5.02813V11.7656C1.28125 12.0847 1.40801 12.3907 1.63364 12.6164C1.85927 12.842 2.16529 12.9688 2.48438 12.9688H14.5156C14.8347 12.9688 15.1407 12.842 15.3664 12.6164C15.592 12.3907 15.7188 12.0847 15.7188 11.7656V5.02856ZM14.5156 2.03125H2.48438C2.16529 2.03125 1.85927 2.15801 1.63364 2.38364C1.40801 2.60927 1.28125 2.91529 1.28125 3.23438V3.78081L8.5 7.75069L15.7188 3.78038V3.23438C15.7188 2.91529 15.592 2.60927 15.3664 2.38364C15.1407 2.15801 14.8347 2.03125 14.5156 2.03125Z" fill="white"/>
</svg>
