<svg width="60" height="60" viewBox="0 0 60 60" fill="none" xmlns="http://www.w3.org/2000/svg">
<g clip-path="url(#clip0_673_321)">
<g clip-path="url(#clip1_673_321)">
<path d="M20 29.0167V45.0001H35.9833L32.65 41.6667H23.3333V32.3501L20 29.0167Z" fill="#5D7488"/>
<path d="M63.1166 53.8167L58.3333 48.9667V53.3333H11.6666V46.4167H14.9999V43.75H11.6666V32.6667H14.9999V30H11.6666V19.3333H14.9999V16.6667H11.6666V7.35001L38.2333 33.7667V29.0667L11.1833 2.15001C10.9502 1.91496 10.6523 1.75466 10.3277 1.68954C10.0032 1.62443 9.66655 1.65745 9.36081 1.78439C9.05507 1.91134 8.79406 2.12645 8.61106 2.40232C8.42806 2.67819 8.33135 3.0023 8.33328 3.33334V55C8.33328 55.442 8.50887 55.866 8.82144 56.1785C9.134 56.4911 9.55792 56.6667 9.99995 56.6667H61.9333C62.2643 56.6686 62.5884 56.5719 62.8643 56.3889C63.1402 56.2059 63.3553 55.9449 63.4822 55.6391C63.6092 55.3334 63.6422 54.9968 63.5771 54.6722C63.512 54.3476 63.3517 54.0498 63.1166 53.8167Z" fill="#5D7488"/>
<path d="M45 49.9999H51.6666C52.5507 49.9999 53.3985 49.6488 54.0236 49.0236C54.6488 48.3985 55 47.5507 55 46.6666V14.4999L51.1666 7.44995C50.8702 6.93632 50.442 6.51108 49.9264 6.2181C49.4108 5.92513 48.8263 5.77503 48.2333 5.78328C47.6269 5.78809 47.0332 5.95825 46.5164 6.27543C45.9995 6.59262 45.5789 7.0448 45.3 7.58328L41.6666 14.5333V46.6666C41.6666 47.5507 42.0178 48.3985 42.6429 49.0236C43.2681 49.6488 44.1159 49.9999 45 49.9999ZM45 15.3333L48.2333 9.04995L51.6666 15.3499V39.9999H45V15.3333ZM45 42.7166H51.6666V46.7833H45V42.7166Z" fill="#5D7488"/>
</g>
</g>
<defs>
<clipPath id="clip0_673_321">
<rect width="60" height="60" fill="white"/>
</clipPath>
<clipPath id="clip1_673_321">
<rect width="60" height="60" fill="white" transform="translate(5)"/>
</clipPath>
</defs>
</svg>
