<svg width="48" height="48" viewBox="0 0 48 48" fill="none" xmlns="http://www.w3.org/2000/svg">
<path d="M42.367 8H5.633C4.73112 8 4 8.73112 4 9.633V38.367C4 39.2689 4.73112 40 5.633 40H42.367C43.2689 40 44 39.2689 44 38.367V9.633C44 8.73112 43.2689 8 42.367 8Z" stroke="#94A6B3" stroke-width="4"/>
<path d="M16 18.9479C14 15.9999 10.498 17.9379 10.749 20.9679C11 23.9999 15 23.9999 15.249 27.0319C15.5 30.0619 12 31.9999 10 29.0509M26 17.9999H22V30.9999H26M22 24.9999H26" stroke="#94A6B3" stroke-width="4" stroke-linecap="round" stroke-linejoin="round"/>
<path d="M38 21C38 19.3431 36.6569 18 35 18C33.3431 18 32 19.3431 32 21V28C32 29.6569 33.3431 31 35 31C36.6569 31 38 29.6569 38 28V21Z" stroke="#94A6B3" stroke-width="4" stroke-linecap="round" stroke-linejoin="round"/>
</svg>
