<svg width="577" height="532" viewBox="0 0 577 532" fill="none" xmlns="http://www.w3.org/2000/svg">
<path fill-rule="evenodd" clip-rule="evenodd" d="M0 266.003C0 412.459 129.651 532 288.497 532C447.342 532 577 412.459 577 266.003C577 119.545 447.342 0 288.497 0C129.651 0 0 119.545 0 266.003ZM82.4299 266.003C82.4299 160.619 174.199 76.0015 288.497 76.0015C402.795 76.0015 494.57 160.619 494.57 266.003C494.57 371.386 402.795 455.998 288.497 455.998C174.199 455.998 82.4299 371.386 82.4299 266.003Z" fill="#FF5677"/>
<path d="M130 305V366.167H231.07C233.193 334.226 243.898 320.252 272.577 305H130ZM304.992 305C278.356 305 243.185 334.653 243.185 366.167V527H331.043V385.333C331.043 363.513 366.443 366.167 366.443 366.167H444V305H304.992Z" fill="#FF5677"/>
<path d="M130 259.723C130 259.723 244.706 106.309 248.209 94.257C251.873 81.6491 248.209 36.0857 248.209 7H328.192L325.221 84.4962C322.532 110.198 315.088 127.601 292.013 160.718L217.462 259.723H130ZM358.732 259.723L298.764 175.406C307.754 163.969 321.629 140.454 329.418 117.84L444 260L358.732 259.723Z" fill="#FF5677"/>
<path d="M129 267V297H445V267H129Z" fill="#FF5677"/>
<path d="M234 259.72L346 260L293.011 183L234 259.72Z" fill="#FF5677"/>
</svg>
