<svg width="74" height="74" viewBox="0 0 74 74" fill="none" xmlns="http://www.w3.org/2000/svg">
<g clip-path="url(#clip0_1125_10)">
<path fill-rule="evenodd" clip-rule="evenodd" d="M44.5649 0.780901V0.985282C44.5649 6.71077 47.4291 12.0204 52.1284 15.2905C58.9731 20.0533 63.4286 27.9805 63.4286 37C63.4286 50.7598 53.0587 61.9726 39.664 63.2975V73.9042C58.8025 72.5313 74 56.4768 74 37C74 19.2189 61.3326 4.29062 44.5649 0.780901ZM0 37C0 54.4147 12.1515 69.0935 28.4047 72.988C28.4047 67.123 25.6463 61.6075 20.9765 58.0583C14.6407 53.242 10.5714 45.6207 10.5714 37C10.5714 23.0528 21.2274 11.7188 34.8899 10.6532C34.9407 7.79328 34.8096 3.40403 34.7377 0.0690918C15.4117 1.24463 0 17.3879 0 37Z" fill="#FF5677"/>
<path d="M16.8762 42.3872V43.8489C16.8762 47.7406 20.0321 50.8965 23.9238 50.8965H28.4047C28.4047 46.5129 32.9124 42.3872 36.3248 42.3872H16.8762Z" fill="#FF5677"/>
<path d="M39.1439 42.3872C35.7314 42.3872 31.2238 46.5129 31.2238 50.8965V73.5475C33.1069 73.845 35.0365 74 37 74C38.862 74 40.6929 73.8605 42.483 73.5927V53.5633C42.483 50.5272 47.0189 50.8965 47.0189 50.8965H49.9098C53.8015 50.8965 56.9574 47.7406 56.9574 43.8489V42.3872H39.1439Z" fill="#FF5677"/>
<path d="M37 0C35.2987 0 33.6242 0.115581 31.9835 0.341105C32.0568 3.91284 32.123 8.32747 32.0512 11.0295C32.0201 12.1712 31.9638 13.0085 31.8736 13.3482C31.4507 14.9226 18.4521 33.8413 16.8762 36.1317H24.4017C26.7105 36.1317 28.8741 34.9999 30.1906 33.1027L37.4877 22.5904C40.4449 17.9855 41.3991 15.5654 41.7444 11.9908V4.736C41.7444 2.13543 39.6471 0.00281905 37.0465 0C37.031 0 37.0141 0 36.9986 0L37 0Z" fill="#FF5677"/>
<path d="M47.6644 22.4439C45.9519 19.8729 42.1659 19.9124 40.4984 22.5144C40.4815 22.5397 40.466 22.5651 40.4491 22.5905C39.2129 24.3707 39.2129 26.7331 40.4491 28.5133L45.1837 35.3354C45.5304 35.8344 46.0985 36.1318 46.706 36.1318H52.9361C54.6359 36.1318 55.6409 34.2275 54.6825 32.825C52.7937 30.061 50.0916 26.0903 47.663 22.4439H47.6644Z" fill="#FF5677"/>
<path d="M56.9574 37.0945C56.9574 39.3906 55.0969 41.2512 52.8008 41.2512H21.0329C18.7368 41.2512 16.8762 39.3906 16.8762 37.0945H56.9574Z" fill="#FF5677"/>
<path d="M33.0181 32.6475C34.897 29.9102 38.9367 29.9102 40.8142 32.6475C41.7769 34.0499 40.7733 35.9584 39.0706 35.9584H34.7603C33.059 35.9584 32.054 34.0499 33.0167 32.6475H33.0181Z" fill="#FF5677"/>
</g>
<defs>
<clipPath id="clip0_1125_10">
<rect width="74" height="74" fill="white"/>
</clipPath>
</defs>
</svg>
