<svg width="22" height="22" viewBox="0 0 22 22" fill="none" xmlns="http://www.w3.org/2000/svg">
<g clip-path="url(#clip0_673_301)">
<path fill-rule="evenodd" clip-rule="evenodd" d="M6.83131 1.00994C7.90304 0.960602 8.24475 0.949638 10.9748 0.949638C13.7048 0.949638 14.0466 0.961516 15.1174 1.00994C16.1882 1.05836 16.9191 1.22922 17.5587 1.47683C18.2284 1.72991 18.836 2.12553 19.3385 2.63718C19.8502 3.13879 20.2449 3.74547 20.4971 4.4161C20.7456 5.05567 20.9155 5.7866 20.9649 6.8556C21.0142 7.92916 21.0252 8.27087 21.0252 11C21.0252 13.73 21.0133 14.0718 20.9649 15.1435C20.9164 16.2125 20.7456 16.9434 20.4971 17.583C20.2449 18.2537 19.8495 18.8614 19.3385 19.3637C18.836 19.8754 18.2284 20.2701 17.5587 20.5223C16.9191 20.7708 16.1882 20.9407 15.1192 20.9901C14.0466 21.0394 13.7048 21.0504 10.9748 21.0504C8.24475 21.0504 7.90304 21.0385 6.83131 20.9901C5.76232 20.9416 5.03138 20.7708 4.39181 20.5223C3.72111 20.2701 3.11343 19.8747 2.61107 19.3637C2.09976 18.8618 1.70409 18.2544 1.45163 17.5839C1.20402 16.9443 1.03408 16.2134 0.984741 15.1444C0.935402 14.0708 0.924438 13.7291 0.924438 11C0.924438 8.26995 0.936316 7.92824 0.984741 6.85742C1.03317 5.7866 1.20402 5.05567 1.45163 4.4161C1.70446 3.74554 2.10044 3.13816 2.61199 2.63627C3.11363 2.12507 3.7207 1.7294 4.3909 1.47683C5.03047 1.22922 5.7614 1.05928 6.8304 1.00994H6.83131ZM15.0361 2.81901C13.9762 2.77058 13.6582 2.76053 10.9748 2.76053C8.29135 2.76053 7.97339 2.77058 6.91354 2.81901C5.93317 2.86378 5.40142 3.02732 5.04691 3.16529C4.5782 3.34802 4.24288 3.56456 3.89112 3.91632C3.55767 4.24072 3.30106 4.63564 3.14009 5.07211C3.00212 5.42662 2.83858 5.95837 2.79381 6.93874C2.74538 7.99859 2.73533 8.31655 2.73533 11C2.73533 13.6834 2.74538 14.0014 2.79381 15.0613C2.83858 16.0416 3.00212 16.5734 3.14009 16.9279C3.30089 17.3637 3.55763 17.7593 3.89112 18.0837C4.21547 18.4172 4.61109 18.6739 5.04691 18.8347C5.40142 18.9727 5.93317 19.1362 6.91354 19.181C7.97339 19.2294 8.29044 19.2395 10.9748 19.2395C13.6592 19.2395 13.9762 19.2294 15.0361 19.181C16.0164 19.1362 16.5482 18.9727 16.9027 18.8347C17.3714 18.652 17.7067 18.4354 18.0585 18.0837C18.392 17.7593 18.6487 17.3637 18.8095 16.9279C18.9475 16.5734 19.111 16.0416 19.1558 15.0613C19.2042 14.0014 19.2143 13.6834 19.2143 11C19.2143 8.31655 19.2042 7.99859 19.1558 6.93874C19.111 5.95837 18.9475 5.42662 18.8095 5.07211C18.6268 4.6034 18.4102 4.26808 18.0585 3.91632C17.7341 3.5829 17.3391 3.32628 16.9027 3.16529C16.5482 3.02732 16.0164 2.86378 15.0361 2.81901ZM9.69109 14.0982C10.408 14.3967 11.2063 14.437 11.9496 14.2122C12.6929 13.9874 13.3352 13.5116 13.7666 12.8659C14.1981 12.2203 14.392 11.4448 14.3152 10.6721C14.2385 9.89934 13.8958 9.1772 13.3458 8.62903C12.9951 8.27861 12.5712 8.0103 12.1044 7.84341C11.6376 7.67651 11.1397 7.61518 10.6463 7.66384C10.153 7.7125 9.67661 7.86993 9.25144 8.1248C8.82626 8.37967 8.46289 8.72564 8.18747 9.1378C7.91205 9.54997 7.73145 10.0181 7.65865 10.5084C7.58586 10.9987 7.62268 11.4991 7.76649 11.9735C7.91029 12.4479 8.15748 12.8845 8.49028 13.2519C8.82307 13.6193 9.23318 13.9084 9.69109 14.0982ZM7.32195 7.34715C7.80165 6.86745 8.37113 6.48693 8.99789 6.22732C9.62465 5.96771 10.2964 5.83409 10.9748 5.83409C11.6532 5.83409 12.3249 5.96771 12.9517 6.22732C13.5785 6.48693 14.1479 6.86745 14.6276 7.34715C15.1073 7.82685 15.4879 8.39633 15.7475 9.02309C16.0071 9.64985 16.1407 10.3216 16.1407 11C16.1407 11.6784 16.0071 12.3501 15.7475 12.9769C15.4879 13.6037 15.1073 14.1731 14.6276 14.6528C13.6589 15.6216 12.3449 16.1659 10.9748 16.1659C9.60471 16.1659 8.29074 15.6216 7.32195 14.6528C6.35315 13.6841 5.80889 12.3701 5.80889 11C5.80889 9.62991 6.35315 8.31594 7.32195 7.34715ZM17.2864 6.60342C17.4053 6.49129 17.5005 6.35644 17.5663 6.20687C17.6321 6.05729 17.6672 5.89603 17.6696 5.73263C17.672 5.56923 17.6416 5.40702 17.5802 5.25559C17.5187 5.10416 17.4275 4.96659 17.312 4.85104C17.1964 4.73549 17.0589 4.64429 16.9074 4.58286C16.756 4.52142 16.5938 4.491 16.4304 4.49338C16.267 4.49576 16.1057 4.5309 15.9561 4.59673C15.8066 4.66255 15.6717 4.75772 15.5596 4.87659C15.3415 5.10777 15.2221 5.41485 15.2267 5.73263C15.2314 6.05041 15.3597 6.35388 15.5844 6.57861C15.8091 6.80334 16.1126 6.93164 16.4304 6.93627C16.7482 6.9409 17.0552 6.82151 17.2864 6.60342Z" fill="#5F6C7B"/>
</g>
<defs>
<clipPath id="clip0_673_301">
<rect width="21.9281" height="21.9281" fill="white" transform="translate(0.0107422 0.0359688)"/>
</clipPath>
</defs>
</svg>
