<svg width="22" height="22" viewBox="0 0 22 22" fill="none" xmlns="http://www.w3.org/2000/svg">
<path fill-rule="evenodd" clip-rule="evenodd" d="M8.67607 8.23067H12.0694V9.92095C12.5583 8.94881 13.8118 8.07534 15.6949 8.07534C19.3048 8.07534 20.1618 10.0105 20.1618 13.561V20.1367H16.5071V14.3696C16.5071 12.3477 16.0183 11.2074 14.7739 11.2074C13.048 11.2074 12.3308 12.4363 12.3308 14.3687V20.1367H8.67607V8.23067ZM2.40922 19.9814H6.0639V8.07534H2.40922V19.9814ZM6.58743 4.19316C6.58756 4.49949 6.52681 4.8028 6.4087 5.08544C6.29059 5.36809 6.11748 5.62444 5.89943 5.8396C5.45758 6.27873 4.85951 6.52453 4.23656 6.52302C3.6147 6.5226 3.01801 6.27742 2.57551 5.84051C2.35825 5.62462 2.18572 5.36798 2.06782 5.0853C1.94992 4.80262 1.88896 4.49945 1.88843 4.19316C1.88843 3.57461 2.13512 2.98255 2.57642 2.54582C3.01853 2.10832 3.61548 1.86303 4.23747 1.86331C4.86059 1.86331 5.45813 2.10909 5.89943 2.54582C6.33982 2.98255 6.58743 3.57461 6.58743 4.19316Z" fill="white"/>
</svg>
