<svg width="23" height="22" viewBox="0 0 23 22" fill="none" xmlns="http://www.w3.org/2000/svg">
<g clip-path="url(#clip0_673_313)">
<path fill-rule="evenodd" clip-rule="evenodd" d="M11.3417 0.0359688C5.28403 0.0359688 0.377625 4.94237 0.377625 11C0.377625 15.8516 3.51608 19.9494 7.87428 21.4021C8.42248 21.4981 8.62806 21.1691 8.62806 20.8813C8.62806 20.6209 8.61435 19.7575 8.61435 18.8393C5.85964 19.3464 5.14698 18.1677 4.9277 17.551C4.80435 17.2358 4.26985 16.2627 3.80388 16.0023C3.42014 15.7968 2.87194 15.2897 3.79018 15.276C4.6536 15.2623 5.27032 16.0709 5.4759 16.3998C6.46266 18.0581 8.03874 17.5921 8.66917 17.3043C8.76511 16.5917 9.05291 16.112 9.36813 15.8379C6.92863 15.5638 4.3795 14.6181 4.3795 10.4244C4.3795 9.23205 4.80435 8.24529 5.50331 7.4778C5.39367 7.2037 5.00993 6.07989 5.61295 4.57234C5.61295 4.57234 6.53119 4.28453 8.62806 5.69615C9.50518 5.44946 10.4371 5.32611 11.3691 5.32611C12.301 5.32611 13.2329 5.44946 14.1101 5.69615C16.2069 4.27082 17.1252 4.57234 17.1252 4.57234C17.7282 6.07989 17.3445 7.2037 17.2348 7.4778C17.9338 8.24529 18.3586 9.21834 18.3586 10.4244C18.3586 14.6318 15.7958 15.5638 13.3563 15.8379C13.7537 16.1805 14.0964 16.8383 14.0964 17.8662C14.0964 19.3327 14.0827 20.5113 14.0827 20.8813C14.0827 21.1691 14.2882 21.5118 14.8364 21.4021C17.013 20.6673 18.9043 19.2684 20.2441 17.4024C21.584 15.5364 22.305 13.2972 22.3057 11C22.3057 4.94237 17.3993 0.0359688 11.3417 0.0359688Z" fill="white"/>
</g>
<defs>
<clipPath id="clip0_673_313">
<rect width="21.9281" height="21.9281" fill="white" transform="translate(0.377625 0.0359688)"/>
</clipPath>
</defs>
</svg>
