<?xml version="1.0" standalone="no"?>
<!DOCTYPE svg PUBLIC "-//W3C//DTD SVG 20010904//EN"
 "http://www.w3.org/TR/2001/REC-SVG-20010904/DTD/svg10.dtd">
<svg version="1.0" xmlns="http://www.w3.org/2000/svg"
 width="577.000000pt" height="577.000000pt" viewBox="0 0 577.000000 577.000000"
 preserveAspectRatio="xMidYMid meet">
<metadata>
Created by potrace 1.14, written by Peter Selinger 2001-2017
</metadata>
<g transform="translate(0.000000,577.000000) scale(0.100000,-0.100000)"
fill="#000000" stroke="none">
<path d="M2689 5545 c-2 -1 -33 -5 -69 -8 -114 -10 -236 -24 -260 -32 -8 -3
-31 -7 -51 -9 -115 -15 -412 -102 -594 -175 -100 -41 -339 -160 -343 -172 -2
-5 -9 -9 -16 -9 -15 0 -270 -168 -274 -181 -2 -5 -10 -9 -17 -9 -7 0 -15 -3
-17 -7 -1 -5 -37 -35 -78 -68 -132 -105 -334 -314 -445 -460 -25 -33 -49 -65
-55 -72 -59 -71 -214 -347 -270 -483 -56 -133 -117 -320 -136 -413 -2 -10 -5
-26 -8 -35 -5 -17 -10 -40 -21 -116 -4 -21 -8 -48 -11 -60 -18 -95 -26 -515
-11 -611 6 -37 12 -78 23 -150 2 -16 7 -43 11 -60 4 -16 7 -34 8 -40 5 -40 63
-249 84 -300 5 -11 23 -58 41 -105 40 -102 113 -250 174 -354 43 -72 164 -247
202 -293 11 -12 35 -41 54 -65 49 -60 253 -264 326 -326 93 -79 361 -272 377
-272 2 0 42 -21 88 -48 71 -40 166 -86 324 -157 46 -21 190 -71 285 -99 132
-39 303 -76 425 -92 22 -3 51 -8 65 -10 138 -25 584 -26 770 0 14 2 50 6 80
11 30 4 87 14 125 22 39 8 81 17 95 19 14 3 43 10 65 16 22 6 49 13 60 15 19
3 163 48 195 60 8 4 17 7 20 7 9 2 104 37 125 46 11 5 67 30 125 56 58 25 107
50 108 55 2 5 10 9 18 9 11 0 133 66 184 100 8 6 22 13 30 17 8 4 17 9 20 12
3 3 39 29 80 56 275 183 566 477 745 751 85 130 102 158 106 169 3 6 24 48 49
95 24 47 45 87 45 90 1 3 6 16 12 30 56 132 86 211 88 230 0 3 3 10 6 15 7 11
54 190 64 240 44 227 48 276 49 510 0 218 -4 270 -30 420 -9 50 -18 99 -19
110 -2 11 -4 21 -5 23 -3 2 -4 6 -14 52 -4 19 -11 46 -17 60 -5 14 -10 34 -12
45 -2 11 -7 27 -10 35 -3 8 -24 65 -47 127 -35 97 -110 256 -183 389 -24 45
-144 222 -179 268 -89 112 -155 185 -252 281 -115 115 -278 255 -295 255 -5 0
-11 4 -13 8 -7 19 -320 222 -338 219 -3 0 -24 12 -47 26 -24 15 -45 27 -48 27
-2 0 -33 14 -67 31 -105 51 -267 113 -443 168 -56 18 -190 50 -227 55 -21 2
-41 7 -45 9 -4 3 -30 8 -58 11 -27 4 -57 9 -65 11 -17 5 -88 14 -170 22 -65 6
-486 14 -491 8z m656 -802 c111 -18 344 -95 460 -151 22 -11 60 -29 85 -41 51
-24 50 -23 185 -110 55 -35 102 -67 105 -71 3 -4 12 -11 21 -16 69 -38 273
-241 371 -370 121 -157 273 -452 294 -569 3 -16 9 -36 15 -47 5 -10 7 -18 4
-18 -4 0 -3 -6 2 -12 4 -7 8 -18 9 -25 1 -6 7 -33 12 -60 34 -157 48 -424 28
-549 -3 -21 -9 -61 -12 -89 -3 -27 -8 -59 -11 -70 -3 -11 -8 -38 -13 -60 -29
-135 -119 -360 -198 -495 -44 -74 -100 -160 -111 -170 -4 -3 -19 -23 -35 -45
-80 -110 -337 -353 -419 -397 -12 -6 -24 -14 -27 -18 -12 -17 -172 -107 -284
-160 -142 -67 -283 -118 -408 -146 -35 -8 -53 -12 -81 -19 l-27 -7 0 353 c1
393 1 395 67 445 75 57 123 62 616 60 l447 -1 0 88 c1 113 1 447 0 492 l0 35
-737 -3 c-406 -1 -745 -5 -753 -8 -8 -3 -33 -11 -55 -18 -198 -66 -398 -276
-452 -475 -4 -11 -8 -228 -9 -481 -2 -253 -4 -464 -4 -468 0 -10 -44 -3 -125
19 -33 9 -64 17 -70 18 -5 2 -23 8 -38 14 -16 7 -34 12 -41 12 -7 0 -16 3 -20
7 -3 4 -12 8 -19 9 -27 5 -88 32 -202 88 -422 205 -749 537 -933 946 -53 117
-93 235 -84 244 3 4 0 6 -7 6 -7 0 -9 4 -6 10 3 5 2 18 -3 27 -12 22 -41 184
-49 273 -12 125 -6 357 12 440 9 42 16 84 20 110 12 87 84 287 155 432 36 71
154 259 182 290 7 7 31 35 53 63 45 56 178 189 237 238 22 17 50 40 61 50 12
10 34 26 50 35 15 9 27 20 27 24 0 4 5 8 10 8 6 0 16 5 23 10 30 27 122 81
213 126 54 27 102 53 105 57 3 5 10 9 15 9 10 0 49 14 79 27 77 35 286 94 382
107 l42 7 -4 -54 c-3 -30 -7 -64 -9 -76 -4 -21 -53 -112 -66 -123 -5 -5 -34
-48 -55 -82 -5 -9 -24 -36 -42 -61 -17 -25 -68 -98 -114 -164 -74 -105 -108
-151 -139 -190 -6 -7 -10 -16 -10 -22 0 -5 -4 -11 -8 -13 -5 -1 -48 -59 -98
-128 -49 -69 -94 -132 -101 -140 -11 -14 -70 -93 -105 -142 -9 -13 -61 -83
-115 -156 -54 -73 -123 -167 -153 -209 -30 -42 -60 -81 -65 -87 -6 -6 -22 -27
-35 -46 -13 -19 -27 -37 -30 -40 -10 -8 -40 -54 -40 -61 0 -3 195 -6 433 -6
l433 0 40 55 c21 30 46 62 54 72 8 10 23 28 33 39 9 12 17 25 17 31 0 5 6 13
13 17 6 4 28 30 47 58 19 27 41 57 50 66 18 20 291 384 305 407 6 10 13 19 16
22 18 16 200 266 255 350 85 132 173 302 189 365 2 6 10 35 19 65 22 77 37
171 39 238 1 21 4 23 32 17 16 -4 44 -9 60 -12z"/>
<path d="M3265 4297 c-16 -39 -30 -74 -31 -77 -1 -3 -5 -15 -9 -27 -4 -13 -11
-23 -15 -23 -4 0 -11 -11 -14 -25 -3 -13 -29 -64 -56 -111 -28 -48 -50 -88
-50 -90 0 -2 -23 -36 -51 -75 l-50 -71 24 -36 c63 -93 138 -199 152 -217 9
-11 77 -105 151 -210 74 -104 140 -197 147 -205 6 -9 30 -43 52 -75 76 -114
17 -102 495 -103 231 -1 420 1 420 4 0 7 -53 76 -83 109 -10 11 -37 45 -60 75
-23 30 -44 57 -48 60 -4 4 -73 90 -333 414 -17 21 -36 43 -41 50 -6 6 -48 58
-93 114 -46 57 -87 109 -93 115 -5 7 -53 66 -105 132 -53 66 -106 131 -117
145 -12 14 -53 64 -91 113 -38 48 -70 87 -70 87 -1 0 -14 -33 -31 -73z"/>
<path d="M2906 3690 c-9 -16 -22 -35 -29 -42 -7 -7 -37 -44 -66 -83 -29 -38
-66 -86 -81 -105 -32 -40 -106 -137 -235 -307 -49 -65 -102 -133 -117 -151
-15 -18 -28 -36 -28 -41 0 -4 250 -8 555 -9 l556 -2 -78 113 c-42 61 -89 128
-103 148 -14 20 -31 45 -38 55 -7 11 -51 75 -99 144 -47 69 -113 164 -146 213
-33 48 -63 89 -66 92 -4 2 -15 -9 -25 -25z"/>
<path d="M1290 2730 l0 -150 1580 0 1580 0 0 150 0 150 -1580 0 -1580 0 0
-150z"/>
<path d="M1300 2195 c0 -237 3 -305 13 -306 61 -3 989 0 992 3 3 2 7 29 11 59
8 70 41 200 54 213 6 6 10 16 10 24 0 20 53 93 107 146 41 41 79 69 210 153
14 9 -138 12 -689 12 l-708 1 0 -305z"/>
</g>
</svg>
